<svg width="41" height="41" viewBox="0 0 41 41" fill="none" xmlns="http://www.w3.org/2000/svg">
<path fill-rule="evenodd" clip-rule="evenodd" d="M20.1787 40.7729C31.2244 40.7729 40.1787 31.8186 40.1787 20.7729C40.1787 9.72719 31.2244 0.772888 20.1787 0.772888C9.13302 0.772888 0.178711 9.72719 0.178711 20.7729C0.178711 31.8186 9.13302 40.7729 20.1787 40.7729Z" fill="#0AC2A1"/>
<path fill-rule="evenodd" clip-rule="evenodd" d="M28.9287 18.8979C28.9287 25.2173 20.8037 30.634 20.8037 30.634C20.8037 30.634 12.6787 25.2173 12.6787 18.8979C12.6787 14.4106 16.3164 10.7729 20.8037 10.7729C25.291 10.7729 28.9287 14.4106 28.9287 18.8979V18.8979Z" stroke="white" stroke-width="2" stroke-linecap="round" stroke-linejoin="round"/>
<path fill-rule="evenodd" clip-rule="evenodd" d="M20.804 21.6065C22.2998 21.6065 23.5124 20.394 23.5124 18.8982C23.5124 17.4024 22.2998 16.1899 20.804 16.1899C19.3083 16.1899 18.0957 17.4024 18.0957 18.8982C18.0957 20.394 19.3083 21.6065 20.804 21.6065Z" stroke="white" stroke-width="2" stroke-linecap="round" stroke-linejoin="round"/>
</svg>
