<svg width="25" height="63" viewBox="0 0 25 63" fill="none" xmlns="http://www.w3.org/2000/svg">
<path d="M12.3037 1.51996L12.3037 17.52" stroke="#0AC2A1" stroke-opacity="0.2" stroke-width="1.14039" stroke-linecap="round" stroke-dasharray="2.28 2.28"/>
<path d="M7.81351 38.7509C7.50959 39.2694 7.52615 39.909 8.04691 40.2937C8.49252 40.6221 9.28574 40.5794 9.59032 40.0606C10.22 38.9867 11.3618 38.1779 11.3618 38.1779C11.3618 38.1779 10.9414 37.2516 10.7424 35.5158C10.7421 35.5161 8.52993 37.5283 7.81351 38.7509Z" fill="#0AC2A1"/>
<path d="M16.7954 29.4088C15.5033 28.2587 14.1171 27.2268 12.6002 26.3968C12.437 26.2734 12.2503 26.1767 12.0533 26.1121C11.9215 26.0588 11.7921 26.033 11.6676 26.0294C11.4594 26.0055 11.2508 26.0161 11.0598 26.0674C10.5556 26.2025 10.2152 26.5111 10.0216 26.9037C9.08699 27.9952 8.30634 29.1814 7.60582 30.4348C6.91026 31.6783 8.81651 32.791 9.51141 31.5485C9.72858 31.1595 9.95238 30.7761 10.1861 30.4C10.3877 31.7587 10.589 33.1174 10.79 34.4757C10.8307 34.7512 10.9618 34.9882 11.1449 35.1809C11.4375 37.115 11.9748 39.0229 12.822 40.7782C13.4401 42.0594 15.3427 40.9394 14.7276 39.6641C14.0946 38.3528 13.6715 36.9011 13.411 35.4368C13.9837 35.0379 14.1913 34.3195 14.084 33.5931C13.8847 32.2517 13.6864 30.9095 13.4871 29.5678C14.0903 30.0031 14.6723 30.4699 15.2335 30.9695C16.2952 31.9113 17.8614 30.3563 16.7954 29.4088Z" fill="#0AC2A1"/>
<path d="M11.5019 25.5411C12.5638 25.5411 13.4247 24.6802 13.4247 23.6183C13.4247 22.5564 12.5638 21.6955 11.5019 21.6955C10.44 21.6955 9.5791 22.5564 9.5791 23.6183C9.5791 24.6802 10.44 25.5411 11.5019 25.5411Z" fill="#0AC2A1"/>
<path d="M12.3037 45.52L12.3037 61.52" stroke="#0AC2A1" stroke-opacity="0.2" stroke-width="1.14039" stroke-linecap="round" stroke-dasharray="2.28 2.28"/>
</svg>
