<svg width="22" height="18" viewBox="0 0 22 18" fill="none" xmlns="http://www.w3.org/2000/svg">
<path d="M13.2114 12.7426C13.1212 12.7426 13.0347 12.7068 12.9709 12.643L5.48633 5.15837C5.43876 5.11079 5.40637 5.05018 5.39325 4.9842C5.38013 4.91821 5.38687 4.84982 5.41261 4.78766C5.43836 4.72551 5.48195 4.67238 5.53788 4.635C5.59382 4.59761 5.65958 4.57765 5.72685 4.57764H20.696C20.7633 4.57765 20.8291 4.59761 20.885 4.635C20.9409 4.67238 20.9845 4.72551 21.0103 4.78766C21.036 4.84982 21.0427 4.91821 21.0296 4.9842C21.0165 5.05018 20.9841 5.11079 20.9365 5.15837L13.452 12.643C13.3882 12.7068 13.3017 12.7426 13.2114 12.7426ZM6.54812 5.25805L13.2114 11.9214L19.8747 5.25805H6.54812Z" fill="black"/>
<path d="M13.2133 17.8456C13.123 17.8456 13.0365 17.8097 12.9727 17.7459C12.9089 17.6821 12.873 17.5956 12.873 17.5053V12.4022C12.873 12.312 12.9089 12.2255 12.9727 12.1617C13.0365 12.0979 13.123 12.062 13.2133 12.062C13.3035 12.062 13.39 12.0979 13.4538 12.1617C13.5176 12.2255 13.5535 12.312 13.5535 12.4022V17.5053C13.5535 17.5956 13.5176 17.6821 13.4538 17.7459C13.39 17.8097 13.3035 17.8456 13.2133 17.8456Z" fill="black"/>
<path d="M15.2528 17.8455H11.1703C11.0801 17.8455 10.9935 17.8096 10.9297 17.7458C10.8659 17.682 10.8301 17.5955 10.8301 17.5052C10.8301 17.415 10.8659 17.3285 10.9297 17.2647C10.9935 17.2009 11.0801 17.165 11.1703 17.165H15.2528C15.343 17.165 15.4295 17.2009 15.4933 17.2647C15.5571 17.3285 15.593 17.415 15.593 17.5052C15.593 17.5955 15.5571 17.682 15.4933 17.7458C15.4295 17.8096 15.343 17.8455 15.2528 17.8455Z" fill="black"/>
<path d="M5.72776 9.68062C4.78574 9.68062 3.86488 9.40128 3.08163 8.87792C2.29837 8.35456 1.68789 7.6107 1.3274 6.74039C0.966907 5.87008 0.872586 4.91242 1.05636 3.9885C1.24014 3.06459 1.69377 2.21592 2.35987 1.54981C3.02598 0.883707 3.87465 0.430083 4.79856 0.246305C5.72248 0.0625273 6.68014 0.156849 7.55045 0.517343C8.42076 0.877836 9.16462 1.48831 9.68798 2.27157C10.2113 3.05483 10.4907 3.97569 10.4907 4.9177C10.4907 5.00793 10.4548 5.09446 10.391 5.15826C10.3272 5.22207 10.2407 5.25791 10.1505 5.25791H6.54902L9.09582 7.80369C9.1596 7.86749 9.19543 7.954 9.19543 8.04421C9.19543 8.13443 9.1596 8.22094 9.09582 8.28474C8.65464 8.7286 8.12978 9.08052 7.55164 9.32013C6.97351 9.55973 6.35358 9.68226 5.72776 9.68062ZM5.72776 0.835204C5.07069 0.834991 4.42329 0.993378 3.84053 1.29691C3.25778 1.60044 2.75689 2.04015 2.38044 2.57868C2.00398 3.11721 1.76307 3.73864 1.67817 4.3902C1.59327 5.04176 1.66689 5.70418 1.89278 6.3212C2.11867 6.93821 2.49015 7.49159 2.97566 7.93432C3.46118 8.37705 4.04638 8.69605 4.68156 8.86422C5.31674 9.03239 5.98313 9.04476 6.62411 8.90028C7.2651 8.75581 7.86174 8.45875 8.36335 8.03435L5.48723 5.15823C5.43967 5.11065 5.40728 5.05004 5.39416 4.98405C5.38104 4.91807 5.38777 4.84968 5.41352 4.78752C5.43926 4.72536 5.48285 4.67224 5.53879 4.63485C5.59472 4.59747 5.66048 4.57751 5.72776 4.57749H9.79631C9.70969 3.55765 9.24369 2.6074 8.49038 1.9145C7.73708 1.22161 6.75127 0.836472 5.72776 0.835204Z" fill="black"/>
<path d="M18.316 7.6394H8.10974C8.01951 7.6394 7.93298 7.60356 7.86918 7.53976C7.80537 7.47595 7.76953 7.38942 7.76953 7.29919C7.76953 7.20896 7.80537 7.12243 7.86918 7.05863C7.93298 6.99483 8.01951 6.95898 8.10974 6.95898H18.316C18.4062 6.95898 18.4927 6.99483 18.5565 7.05863C18.6203 7.12243 18.6562 7.20896 18.6562 7.29919C18.6562 7.38942 18.6203 7.47595 18.5565 7.53976C18.4927 7.60356 18.4062 7.6394 18.316 7.6394Z" fill="black"/>
</svg>
