<svg width="20" height="20" viewBox="0 0 20 20" fill="none" xmlns="http://www.w3.org/2000/svg">
<path d="M9.15154 8.63872C8.77432 8.63218 8.40019 8.56927 8.04156 8.45208C7.1379 8.16639 6.25785 7.56646 6.46121 6.92094C6.48684 6.83871 6.54379 6.76985 6.61975 6.72925C6.69571 6.68865 6.78459 6.67956 6.8672 6.70394C6.94981 6.72831 7.01952 6.78421 7.06127 6.85955C7.10302 6.93488 7.11346 7.02362 7.09034 7.10659C7.11461 7.22074 7.47575 7.58515 8.23837 7.82624C9.01477 8.07126 9.52449 7.97319 9.59633 7.89184L11.6628 1.3392C11.6907 1.25856 11.749 1.192 11.8253 1.15364C11.9015 1.11529 11.9897 1.10816 12.0711 1.13377C12.1526 1.15939 12.2208 1.21573 12.2613 1.29083C12.3019 1.36594 12.3115 1.45389 12.2883 1.53601L10.2146 8.10636C10.1592 8.28217 9.97026 8.58427 9.329 8.63118C9.2716 8.63675 9.21354 8.63872 9.15154 8.63872V8.63872Z" fill="black"/>
<path d="M12.2857 9.62698C11.9067 9.62007 11.5309 9.55695 11.1705 9.43969C10.2668 9.15432 9.38675 8.55406 9.59012 7.90854C9.61808 7.8279 9.67637 7.76133 9.75262 7.72298C9.82886 7.68462 9.91706 7.67749 9.99847 7.70311C10.0799 7.72873 10.1481 7.78507 10.1887 7.86017C10.2292 7.93527 10.2389 8.02322 10.2156 8.10534C10.2307 8.19456 10.5909 8.56784 11.3683 8.81319C12.1456 9.05854 12.6544 8.96014 12.7262 8.87879C12.7391 8.83825 12.7599 8.80068 12.7875 8.76829C12.8151 8.7359 12.8488 8.70934 12.8868 8.69015C12.9248 8.67097 12.9662 8.65956 13.0086 8.65658C13.0511 8.6536 13.0937 8.65911 13.1339 8.6728C13.2169 8.70122 13.2854 8.76115 13.3247 8.83963C13.3639 8.91812 13.3706 9.00888 13.3435 9.09232C13.2225 9.4761 12.7987 9.62698 12.2857 9.62698V9.62698Z" fill="black"/>
<path d="M15.4073 10.6141C15.0302 10.6076 14.6562 10.5448 14.2977 10.4278C13.879 10.3034 13.4868 10.1033 13.1404 9.83735C12.6428 9.42963 12.6619 9.07374 12.7173 8.89793C13.7879 5.50697 13.4038 2.23508 11.8776 1.75323C11.1803 1.53215 10.2756 1.94741 9.39719 2.88945C8.33179 4.11729 7.54391 5.56058 7.08735 7.12077C7.03159 7.29659 6.84266 7.59868 6.20173 7.64559C5.76529 7.66422 5.32912 7.60308 4.91462 7.46518C4.49592 7.34104 4.10365 7.14091 3.7574 6.87477C3.25981 6.46705 3.27851 6.11116 3.33427 5.93535C3.89298 4.12434 5.12989 2.59928 6.78657 1.67877C7.58316 1.23034 8.4632 0.949893 9.37237 0.854722C10.2815 0.759551 11.2006 0.851679 12.0728 1.12542H12.0774C12.9487 1.4022 13.7541 1.8547 14.4438 2.45497C15.1334 3.05524 15.6926 3.79054 16.0869 4.61544C16.915 6.31987 17.0525 8.27831 16.4707 10.0817C16.4153 10.2575 16.2263 10.5596 15.5851 10.6065C15.5274 10.6121 15.468 10.6141 15.4073 10.6141V10.6141ZM13.5108 2.55784C14.1783 4.0575 14.1632 6.49395 13.3422 9.09408C13.3572 9.18362 13.7177 9.55657 14.4948 9.80192C15.2718 10.0473 15.7809 9.94887 15.8524 9.86752C16.3761 8.22863 16.2489 6.45105 15.4972 4.90343C15.0443 3.96602 14.3608 3.15894 13.5108 2.55784ZM10.0758 1.47344C9.0351 1.47771 8.01247 1.74609 7.10375 2.25344C5.59484 3.09205 4.4683 4.48125 3.95946 6.13084C3.97422 6.22039 4.3347 6.59333 5.11175 6.83869C5.87405 7.07977 6.37918 6.98957 6.46545 6.90954C6.95227 5.26085 7.78903 3.73658 8.91863 2.44074C9.25792 2.06649 9.64735 1.74097 10.0758 1.47344V1.47344Z" fill="black"/>
<path d="M8.0253 14.2785C7.97379 14.2785 7.92301 14.2664 7.87707 14.2431C7.83112 14.2198 7.7913 14.1861 7.76083 14.1446C7.73036 14.103 7.7101 14.0549 7.70168 14.0041C7.69326 13.9533 7.69692 13.9012 7.71237 13.8521L9.49018 8.22181C9.51628 8.13882 9.57428 8.0696 9.65142 8.02937C9.72856 7.98914 9.81852 7.9812 9.90151 8.0073C9.9845 8.03339 10.0537 8.09139 10.094 8.16853C10.1342 8.24567 10.1421 8.33563 10.116 8.41862L8.33789 14.0492C8.31691 14.1157 8.27529 14.1738 8.21909 14.215C8.16288 14.2562 8.095 14.2785 8.0253 14.2785V14.2785Z" fill="black"/>
<path d="M19.5128 19.1751H17.5448C17.4858 19.1751 17.428 19.1592 17.3773 19.1292C17.3266 19.0991 17.285 19.0559 17.2568 19.0042L16.4554 17.5351H2.78435C2.71636 17.5351 2.65004 17.514 2.59457 17.4747C2.5391 17.4353 2.49722 17.3798 2.47471 17.3156L0.178646 10.7554C0.161296 10.706 0.156053 10.6531 0.163355 10.6012C0.170657 10.5493 0.190293 10.4999 0.220617 10.4571C0.25094 10.4143 0.291069 10.3795 0.33764 10.3554C0.384212 10.3314 0.43587 10.3188 0.488287 10.3188H2.45634C2.52428 10.3189 2.59052 10.34 2.64593 10.3793C2.70133 10.4186 2.74317 10.4742 2.76565 10.5383L4.29615 14.911H17.5448C17.6037 14.911 17.6615 14.9268 17.7122 14.9569C17.7629 14.987 17.8045 15.0301 17.8328 15.0819L19.8008 18.69C19.8281 18.7399 19.8419 18.7961 19.8408 18.853C19.8398 18.9099 19.824 18.9656 19.7949 19.0145C19.7659 19.0635 19.7246 19.104 19.6751 19.1322C19.6257 19.1603 19.5697 19.1751 19.5128 19.1751ZM17.7396 18.5191H18.9601L17.3499 15.567H4.06359C3.99565 15.567 3.92941 15.5458 3.874 15.5065C3.8186 15.4672 3.77676 15.4117 3.75427 15.3476L2.22346 10.9749H0.950452L3.01691 16.879H16.65C16.7089 16.879 16.7667 16.8949 16.8174 16.925C16.8681 16.955 16.9097 16.9982 16.9379 17.0499L17.7396 18.5191Z" fill="black"/>
<path d="M2.78504 19.175C2.69805 19.175 2.61462 19.1404 2.5531 19.0789C2.49159 19.0174 2.45703 18.934 2.45703 18.847V17.2069C2.45703 17.1199 2.49159 17.0365 2.5531 16.975C2.61462 16.9135 2.69805 16.8789 2.78504 16.8789C2.87203 16.8789 2.95546 16.9135 3.01698 16.975C3.07849 17.0365 3.11305 17.1199 3.11305 17.2069V18.847C3.11305 18.934 3.07849 19.0174 3.01698 19.0789C2.95546 19.1404 2.87203 19.175 2.78504 19.175Z" fill="black"/>
<path d="M15.2479 19.175C15.1609 19.175 15.0775 19.1404 15.016 19.0789C14.9545 19.0174 14.9199 18.934 14.9199 18.847V17.2069C14.9199 17.1199 14.9545 17.0365 15.016 16.975C15.0775 16.9135 15.1609 16.8789 15.2479 16.8789C15.3349 16.8789 15.4184 16.9135 15.4799 16.975C15.5414 17.0365 15.5759 17.1199 15.5759 17.2069V18.847C15.5759 18.934 15.5414 19.0174 15.4799 19.0789C15.4184 19.1404 15.3349 19.175 15.2479 19.175Z" fill="black"/>
</svg>
