<svg width="22" height="18" viewBox="0 0 22 18" fill="none" xmlns="http://www.w3.org/2000/svg">
<path d="M19.294 1.81614H16.5291V1.12491C16.5291 0.934045 16.3743 0.779297 16.1835 0.779297H2.35893C2.16806 0.779297 2.01331 0.934045 2.01331 1.12491V10.1109C2.01539 12.2817 3.2135 14.2748 5.12971 15.2951H0.976473C0.785608 15.2951 0.630859 15.4498 0.630859 15.6407V17.0231C0.630859 17.214 0.785608 17.3687 0.976473 17.3687H17.5659C17.7568 17.3687 17.9115 17.214 17.9115 17.0231V15.6407C17.9115 15.4498 17.7568 15.2951 17.5659 15.2951H13.4127C15.3289 14.2748 16.527 12.2817 16.5291 10.1109V8.03718H19.294C20.4388 8.03606 21.3666 7.1083 21.3677 5.9635V3.88982C21.3666 2.74502 20.4388 1.81726 19.294 1.81614ZM17.2203 15.9863V16.6775H1.32209V15.9863H17.2203ZM15.8379 10.1109C15.8346 12.9727 13.5155 15.2918 10.6537 15.2951H7.88874C5.02693 15.2918 2.70778 12.9727 2.70454 10.1109V1.47052H15.8379V10.1109ZM20.6764 5.9635C20.6764 6.727 20.0575 7.34596 19.294 7.34596H16.5291V2.50736H19.294C20.0575 2.50736 20.6764 3.12632 20.6764 3.88982V5.9635Z" fill="black"/>
</svg>
