<svg width="500" height="500" viewBox="0 0 500 500" fill="none" xmlns="http://www.w3.org/2000/svg">
<path d="M468.07 248.19C463.16 289.8 444.16 338.19 406.22 360.4C348.89 394 353.69 445.65 241.79 468.1C225.469 471.457 208.831 473.03 192.17 472.79C184.019 472.643 175.886 471.975 167.82 470.79C96.7 460.42 48.84 411 31.28 351.31C8.16999 272.829 54.28 221.45 84.89 190.49C115.5 159.53 137.89 63.0795 247.71 40.1295C264.467 36.5604 281.58 34.9364 298.71 35.2895C337.79 36.2895 380.41 49.0795 409.9 75.8595C412.12 77.8595 414.277 79.9428 416.37 82.1095C457.35 124.19 474.77 191.47 468.07 248.19Z" fill="#FFF8F0"/>
<path opacity="0.7" d="M468.07 248.19C463.16 289.8 444.16 338.19 406.22 360.4C348.89 394 353.69 445.65 241.79 468.1C225.469 471.457 208.831 473.03 192.17 472.79C184.019 472.643 175.886 471.975 167.82 470.79C96.7 460.42 48.84 411 31.28 351.31C8.16999 272.829 54.28 221.45 84.89 190.49C115.5 159.53 137.89 63.0795 247.71 40.1295C264.467 36.5604 281.58 34.9364 298.71 35.2895C337.79 36.2895 380.41 49.0795 409.9 75.8595C412.12 77.8595 414.277 79.9428 416.37 82.1095C457.35 124.19 474.77 191.47 468.07 248.19Z" fill="#FFF8F0"/>
<path d="M16.8701 387.74H477.45" stroke="#263238" stroke-linejoin="round"/>
<path d="M111 366.41C110.358 364.062 109.542 361.766 108.56 359.54C107.461 357.675 106.245 355.881 104.92 354.17C103.94 352.883 102.738 351.783 101.37 350.92C101.37 350.92 108.37 353.66 111.06 358.22C110.827 355.016 110.154 351.86 109.06 348.84C107.41 344.76 103.41 340.98 103.41 340.98C103.41 340.98 109.6 343.37 111.32 346.15C113.04 348.93 114.22 355.3 114.22 355.3C114.22 355.3 113.04 345.75 113.73 341.38C114.42 337.01 118.54 328.27 118.54 328.27C118.54 328.27 118 339.76 118 345.32C118.038 348.104 117.924 350.888 117.66 353.66C117.66 353.66 118.1 348.37 121.29 346.55C123.8 345.12 127.83 346.15 127.83 346.15C127.83 346.15 124.05 347.76 122.51 350.72C120.6 354.4 119.26 359.67 119.92 359.1C121.749 357.965 123.791 357.216 125.92 356.9C127.33 356.948 128.706 357.351 129.92 358.07C129.92 358.07 121.32 360.07 120.29 366.41H111Z" fill="white" stroke="#263238" stroke-linecap="round" stroke-linejoin="round"/>
<path d="M119.06 363.869C119.06 363.869 119.38 357.319 117.3 355.399C115.22 353.479 113 354.189 112.03 356.199C111.06 358.209 112.19 362.909 112.19 362.909C112.19 362.909 113.63 360.519 114.27 360.519C114.91 360.519 115.07 363.869 115.07 363.869" fill="white"/>
<path d="M119.06 363.869C119.06 363.869 119.38 357.319 117.3 355.399C115.22 353.479 113 354.189 112.03 356.199C111.06 358.209 112.19 362.909 112.19 362.909C112.19 362.909 113.63 360.519 114.27 360.519C114.91 360.519 115.07 363.869 115.07 363.869" stroke="#263238" stroke-linecap="round" stroke-linejoin="round"/>
<path d="M114.27 360.52C114.27 360.52 115.71 358.76 117.14 359.52C117.525 359.727 117.82 360.069 117.968 360.481C118.116 360.893 118.106 361.345 117.94 361.75" stroke="#263238" stroke-linecap="round" stroke-linejoin="round"/>
<path d="M123.53 396.839H107.78L101.02 392.209L107.78 364.369H123.53L129.97 390.939L123.53 396.839Z" fill="#C9C9C9" stroke="#263238" stroke-linejoin="round"/>
<path d="M107.78 364.369L119.6 377.679L123.53 364.369" stroke="#263238" stroke-miterlimit="10"/>
<path d="M101.02 392.21L121.43 391.79L119.6 377.68" stroke="#263238" stroke-miterlimit="10"/>
<path d="M129.97 390.939L121.43 391.789L107.78 396.839" stroke="#263238" stroke-miterlimit="10"/>
<path d="M121.43 391.789L123.53 396.839" stroke="#263238" stroke-miterlimit="10"/>
<path d="M280.77 387.09L204.9 392.25L259.09 404.12L329.28 395.35L280.77 387.09Z" fill="white" stroke="#263238" stroke-linejoin="round"/>
<path d="M240.63 281.09C240.63 281.09 212 293.33 202.16 297.17C192.32 301.01 187.82 304.52 186.08 315.36C184.34 326.2 178.73 362.91 178.73 362.91C178.73 362.91 180.13 371.65 187.82 374.45C195.51 377.25 199 376.2 199 376.2L200.4 387.74H305.32L312.32 353.12L331.9 384.94L359.53 384.24C358.441 373.261 354.723 362.707 348.69 353.47C338.54 337.73 330.15 325.85 330.15 325.85C330.15 325.85 323.7 299.79 312.67 296.47C306.23 294.54 289.94 288.47 285.74 286.68C281.54 284.89 273.42 281.18 273.42 281.18L240.63 281.09Z" fill="white" stroke="#263238" stroke-linejoin="round"/>
<path d="M330.14 325.85C330.14 325.85 323.69 299.79 312.66 296.47C306.22 294.54 289.93 288.47 285.73 286.68C281.53 284.89 273.41 281.18 273.41 281.18L240.63 281.09C240.63 281.09 212 293.33 202.16 297.17C192.32 301.01 187.82 304.52 186.08 315.36C185.5 318.95 184.5 325.36 183.41 332.36C186.416 331.245 189.604 330.706 192.81 330.77C201.17 330.94 205.11 332.58 205.11 332.58L199 376.2L200.4 387.74H305.32L312.32 353.12L313.61 355.22C314.75 351.58 320.31 336.91 336.25 334.68C332.51 329.21 330.14 325.85 330.14 325.85Z" fill="#E56000" stroke="#263238" stroke-linecap="round" stroke-linejoin="round"/>
<path d="M277.68 284.109C278.628 291.362 278.537 298.713 277.41 305.939" stroke="#263238" stroke-miterlimit="10"/>
<path d="M274.18 301.09C274.18 301.09 272.29 307.02 268.79 315.09" stroke="#263238" stroke-miterlimit="10"/>
<path d="M312.19 350.419L314.08 325.619" stroke="#263238" stroke-miterlimit="10"/>
<path d="M310.57 322.38V337.48" stroke="#263238" stroke-miterlimit="10"/>
<path d="M236.61 266.68L236.83 286.81C236.83 286.81 239.64 309.97 256.31 311.92C272.98 313.87 273.41 281.18 273.41 281.18L269.94 267.33C269.94 267.33 266.94 276.42 253.28 274.04C239.62 271.66 236.61 266.68 236.61 266.68Z" fill="white" stroke="#263238" stroke-miterlimit="10"/>
<path d="M264.25 274.18L264.32 273.07C261.8 274.25 258.25 274.91 253.32 274.07C239.68 271.69 236.65 266.71 236.65 266.71L236.87 286.84C237.234 289.364 237.823 291.851 238.63 294.27C243.67 289.12 264.25 274.18 264.25 274.18Z" fill="#263238" stroke="#263238" stroke-linejoin="round"/>
<path d="M228 251.53C228 251.53 232.33 267.33 235.14 269.71C237.95 272.09 251.14 281.62 261.33 277.94C271.52 274.26 274.75 258.89 274.75 255.21C274.75 251.53 272.11 236 272.11 236C272.11 236 271.02 224.31 269.94 220.84C268.86 217.37 266.7 212.62 258.25 210.45C249.8 208.28 242.89 210.45 240.25 212.19C237.61 213.93 225.35 234 225.35 234L228 251.53Z" fill="white" stroke="#263238" stroke-linejoin="round"/>
<path d="M253.93 228.149L258.04 238.759L252.84 242.219" stroke="#263238" stroke-miterlimit="10"/>
<path d="M241.37 251.999C241.37 251.999 243.1 245.939 247.65 245.939C252.2 245.939 252.65 250.939 252.65 250.939" stroke="#263238" stroke-miterlimit="10"/>
<path d="M234.01 232.92L248.3 229.67" stroke="#263238" stroke-miterlimit="10"/>
<path d="M255 225.56C255 225.56 256.95 218.63 263.44 219.71" stroke="#263238" stroke-miterlimit="10"/>
<path d="M243.1 236.38C244.055 236.38 244.83 235.457 244.83 234.32C244.83 233.182 244.055 232.26 243.1 232.26C242.144 232.26 241.37 233.182 241.37 234.32C241.37 235.457 242.144 236.38 243.1 236.38Z" fill="#263238"/>
<path d="M260.64 231.189C261.595 231.189 262.37 230.267 262.37 229.129C262.37 227.992 261.595 227.069 260.64 227.069C259.684 227.069 258.91 227.992 258.91 229.129C258.91 230.267 259.684 231.189 260.64 231.189Z" fill="#263238"/>
<path d="M253.93 213L247.43 212.57C247.43 212.57 245.7 219.5 244.43 221.23C243.16 222.96 242.27 219.06 242.27 219.06C242.27 219.06 246.16 217.55 236.42 227.06C226.68 236.57 225.42 233.99 225.42 233.99C225.42 233.99 226.51 245.46 227.16 247.19C227.603 248.597 227.891 250.049 228.02 251.52C228.02 251.52 223.48 249.57 221.53 247.84C219.58 246.11 219.53 242 219.53 242C219.53 242 212.17 244.59 213.04 241.56C213.91 238.53 218.23 234.85 218.23 234.85C218.23 234.85 211.52 232.91 211.74 230.96C211.96 229.01 217.37 229.44 218.01 229.01C218.65 228.58 226.67 202.82 234.68 202.39C242.69 201.96 247.24 204.12 247.24 204.12C247.24 204.12 241.61 198.27 245.29 198.92C248.97 199.57 253.73 206.92 253.95 207.58C254.17 208.24 259.36 199.79 264.77 202.82C270.18 205.85 265.42 207.58 265.42 207.58C267.151 208.857 268.601 210.477 269.679 212.338C270.758 214.199 271.442 216.263 271.69 218.4C272.331 223.499 272.405 228.654 271.91 233.77C271.91 233.77 268.66 221.43 264.98 217.54C261.3 213.65 253.93 213 253.93 213Z" fill="#263238" stroke="#263238" stroke-linejoin="round"/>
<path d="M228 251.529C228 251.529 223 248.069 221.29 250.659C219.58 253.249 219.56 255.859 224.54 259.539C229.52 263.219 231.03 262.139 231.03 262.139L228 251.529Z" fill="white" stroke="#263238" stroke-linejoin="round"/>
<path d="M272.76 238.759C272.76 238.759 275.35 233.999 277.76 237.889C280.17 241.779 274.52 252.179 274.52 252.179L272.76 238.759Z" fill="white" stroke="#263238" stroke-miterlimit="10"/>
<path d="M229.9 247.42C229.9 247.42 228.82 255.64 229.9 259.54C230.98 263.44 235.74 274.69 235.74 278.15C235.74 281.61 235.53 292.87 235.53 292.87C235.53 292.87 192.67 338.11 185.31 349.37C177.95 360.63 177.73 366.03 179.47 370.15C181.21 374.27 185.31 386.38 190.72 386.38C196.13 386.38 211.28 376.38 213.67 371.66C216.06 366.94 246.57 298.07 246.57 298.07C246.57 298.07 250.25 295.25 250.89 291.79C251.53 288.33 250.46 276.85 250.46 276.85L255.46 278.37C255.46 278.37 256.76 284.65 258.46 284.86C260.16 285.07 260.84 280.32 260.84 280.32C260.84 280.32 261.92 273.82 261.27 273.18C260.62 272.54 257.38 268.41 257.38 268.41C257.38 268.41 255.65 263.22 254.56 261.7C253.47 260.18 250.45 260.62 250.45 260.62C250.45 260.62 248.45 258.67 246.99 259.11C245.53 259.55 235.99 264.3 235.99 264.3C235.99 264.3 233.83 257.16 233.99 255.64C234.15 254.12 233.34 250.88 232.69 249.37C232.04 247.86 231.41 245.47 229.9 247.42Z" fill="white" stroke="#263238" stroke-linejoin="round"/>
<path d="M250.46 260.619L240.34 266.479" stroke="#263238" stroke-miterlimit="10"/>
<path d="M257.39 268.41C257.39 268.41 254.29 265.63 252.39 266.27C250.49 266.91 245 270.71 245 270.71" stroke="#263238" stroke-miterlimit="10"/>
<path d="M248 273C248 273 253.49 271.69 255.24 272.94C256.99 274.19 260.37 276.31 260.74 279.07" stroke="#263238" stroke-miterlimit="10"/>
<path d="M258.61 373.72C258.61 373.72 247.56 373.2 246.7 374.93C245.84 376.66 243.59 385.63 243.25 387.53C242.91 389.43 245.66 389.94 247.25 388.22C248.84 386.5 253.25 380.79 253.25 380.79L258.61 373.72Z" fill="white" stroke="#263238" stroke-linejoin="round"/>
<path d="M265.76 354.3L247.22 388.22L250.32 388.73L268.32 355.73C268.419 355.546 268.477 355.343 268.492 355.134C268.506 354.926 268.476 354.717 268.403 354.521C268.33 354.325 268.216 354.147 268.069 353.998C267.922 353.85 267.745 353.735 267.55 353.66C267.224 353.535 266.865 353.531 266.536 353.649C266.208 353.766 265.933 353.997 265.76 354.3Z" fill="white" stroke="#263238" stroke-linejoin="round"/>
<path d="M354.24 366.59C356.417 368.166 358.328 370.08 359.9 372.26C361.79 375.26 365.02 386.54 365.02 391.4C365.02 396.26 329.71 397.06 320.28 397.06C310.85 397.06 286 393.28 286 393.28C286 393.28 275.49 395.98 271.44 395.98C267.39 395.98 259.58 395.98 257.16 395.17C254.858 394.504 252.521 393.963 250.16 393.55C250.16 393.55 245.84 395.44 244.5 393.82C243.16 392.2 247.19 386.54 248.81 383.31C250.43 380.08 259.81 370.91 262.81 369.83C265.81 368.75 289.76 378.46 289.76 378.46C289.76 378.46 312.68 375.46 322.38 371.99C332.08 368.52 338.83 367.67 340.98 367.67" fill="white"/>
<path d="M354.24 366.59C356.417 368.166 358.328 370.08 359.9 372.26C361.79 375.26 365.02 386.54 365.02 391.4C365.02 396.26 329.71 397.06 320.28 397.06C310.85 397.06 286 393.28 286 393.28C286 393.28 275.49 395.98 271.44 395.98C267.39 395.98 259.58 395.98 257.16 395.17C254.858 394.504 252.521 393.963 250.16 393.55C250.16 393.55 245.84 395.44 244.5 393.82C243.16 392.2 247.19 386.54 248.81 383.31C250.43 380.08 259.81 370.91 262.81 369.83C265.81 368.75 289.76 378.46 289.76 378.46C289.76 378.46 312.68 375.46 322.38 371.99C332.08 368.52 338.83 367.67 340.98 367.67" stroke="#263238" stroke-linejoin="round"/>
<path d="M250.19 393.55C250.19 393.55 252.05 388.04 253.6 386.83C255.15 385.62 267.24 377.34 267.24 377.34" stroke="#263238" stroke-miterlimit="10"/>
<path d="M255.67 394.429C255.67 394.429 258.95 390.289 262.06 388.909C265.17 387.529 270.69 385.109 270.69 385.109" stroke="#263238" stroke-miterlimit="10"/>
<path d="M263.61 396C263.61 396 270.69 392 273.79 391.34" stroke="#263238" stroke-miterlimit="10"/>
<path d="M364.11 417.64L293.66 403.14L389.84 399.46L449.85 408.23L364.11 417.64Z" fill="white" stroke="#263238" stroke-linejoin="round"/>
<path d="M370.42 414.21L327.48 405.3L388.76 401.98L434.25 407.72L370.42 414.21Z" fill="#263238" stroke="#263238" stroke-linejoin="round"/>
<path d="M383.79 343.75L364.11 417.64L449.85 408.23L471.48 339.75L383.79 343.75Z" fill="#C9C9C9" stroke="#263238" stroke-linejoin="round"/>
<path d="M429 375C429 378.11 425.73 380.63 421.69 380.63C417.65 380.63 414.37 378.11 414.37 375C414.37 371.89 417.65 369.38 421.69 369.38C425.73 369.38 429 371.93 429 375Z" fill="#263238" stroke="#263238" stroke-linejoin="round"/>
<path d="M461.94 370C443.81 380 426.94 380.3 408.79 386.88C384.04 395.88 364.1 417.67 364.1 417.67L449.85 408.26L461.94 370Z" fill="#263238" stroke="#263238" stroke-linejoin="round"/>
<path d="M114.09 404.22L108.1 398.73L94.3601 402.47L86.8701 420.71L103.6 428.7L116.09 426.2L119.59 413.46L114.09 404.22Z" fill="white" stroke="#263238" stroke-linejoin="round"/>
<path d="M114.09 404.22L104.85 404.47L95.8604 412.71L97.6104 423.95L110.1 425.7L116.59 414.96L106.6 409.47L102.6 412.96L113.09 417.46" stroke="#263238" stroke-linejoin="round"/>
<path d="M102.6 412.96L97.8604 420.46L105.1 421.46" stroke="#263238" stroke-linejoin="round"/>
<path d="M108.1 398.72L112.6 399.72L117.6 403.97L121.85 408.72C121.85 408.72 124.1 414.72 123.35 415.72C122.53 417.321 121.86 418.995 121.35 420.72L117.1 422.22L119.6 413.47L114.1 404.23L108.1 398.72Z" fill="white" stroke="#263238" stroke-linejoin="round"/>
<path d="M240.89 431.04L246.02 437.35L260.16 435.66L270.24 418.72L254.86 408.36L242.14 409L236.81 421.09L240.89 431.04Z" fill="white" stroke="#263238" stroke-linejoin="round"/>
<path d="M240.89 431.04L250.07 432.14L260.18 425.31L260.09 413.93L248 410.37L240 420.05L249.07 426.95L253.54 424.07L243.82 418.09" stroke="#263238" stroke-linejoin="round"/>
<path d="M253.54 424.07L259.33 417.36L252.31 415.31" stroke="#263238" stroke-linejoin="round"/>
<path d="M246 437.35L241.69 435.7L237.38 430.77L233.87 425.45C233.87 425.45 232.53 419.19 233.41 418.31C234.458 416.852 235.365 415.298 236.12 413.67L240.54 412.81L236.79 421.09L240.87 431.09L246 437.35Z" fill="white" stroke="#263238" stroke-linejoin="round"/>
<path d="M147.81 397.16L135.67 403.16V413.11C135.67 413.7 136.07 418.11 136.07 418.11L146.41 424.87L156.75 424.07L163.91 420.29L167.69 414.73L169.48 410.95C169.48 410.95 169.88 404.58 170.08 403.95C170.28 403.32 169.48 398.78 169.48 398.18C169.48 397.58 166.7 393 166.7 393L159.94 393.6L156.56 393.2L147.81 397.16Z" fill="white" stroke="#263238" stroke-linejoin="round"/>
<path d="M147.81 397.16L155.36 404.16L157.95 411.16C157.95 411.16 152.58 417.32 151.78 417.52C150.98 417.72 146.78 419.11 145.62 418.52C144.46 417.93 137.27 411.52 137.27 411.52C137.27 411.52 139.65 404.76 140.27 404.37C140.89 403.98 147.81 397.16 147.81 397.16Z" stroke="#263238" stroke-linejoin="round"/>
<path d="M147.81 397.16L156.56 393.18L162.32 398.75L167.09 406.7L166.3 412.87L162.32 419.03L154.57 421.62L145.62 418.43L153.17 417.64L157.95 411.08L155.36 404.12L147.81 397.16Z" stroke="#263238" stroke-linejoin="round"/>
<path d="M155.36 404.12L146.81 404.31L148.8 410.28L148.6 412.47L145.62 418.43" stroke="#263238" stroke-linejoin="round"/>
<path d="M432.82 406.47L421.72 411.92V421C421.72 421.55 422.08 425.55 422.08 425.55L431.55 431.74L441 431L447.55 427.54L451 422.45L452.64 418.99C452.64 418.99 453 413.17 453.19 412.62C453.38 412.07 452.64 407.89 452.64 407.35C452.64 406.81 450.09 402.61 450.09 402.61L443.91 403.16L440.81 402.8L432.82 406.47Z" fill="white" stroke="#263238" stroke-linejoin="round"/>
<path d="M432.82 406.47L439.73 412.83L442.1 419.2C442.1 419.2 437.19 424.84 436.46 425.02C435.73 425.2 431.91 426.48 430.82 425.93C429.73 425.38 423.18 419.57 423.18 419.57C423.18 419.57 425.36 413.38 425.91 413.02C426.46 412.66 432.82 406.47 432.82 406.47Z" stroke="#263238" stroke-linejoin="round"/>
<path d="M432.82 406.47L440.82 402.83L446.1 407.92L450.47 415.2L449.74 420.84L446.1 426.48L439 428.84L430.82 425.93L437.73 425.2L442.1 419.2L439.73 412.83L432.82 406.47Z" stroke="#263238" stroke-linejoin="round"/>
<path d="M439.73 412.83L431.91 413.01L433.73 418.47L433.55 420.48L430.82 425.93" stroke="#263238" stroke-linejoin="round"/>
<path d="M200.01 405.08L184.59 421.07L186.31 425.35L192.87 429.63L205.15 433.06L212.85 426.49L211.43 415.36L211.14 411.08L212.57 408.8L203.15 402.8L200.01 405.08Z" fill="white" stroke="#263238" stroke-linejoin="round"/>
<path d="M211.14 411.08L206.69 416.55L208.17 421.88L200.17 425.14L197.81 428.4C197.81 428.4 188.33 423.81 187.59 423.4" stroke="#263238" stroke-linejoin="round"/>
<path d="M197.81 428.4L205.06 430.77L210.54 423.81L209.06 416.55" stroke="#263238" stroke-linejoin="round"/>
<path d="M211.28 413.59L215.87 415.07L220 425.44C220 425.44 218.38 430.03 218.08 430.62C217.78 431.21 210.23 435.21 210.23 435.21L199.42 436.84C199.42 436.84 194.69 435.5 194.54 434.76C194.39 434.02 182.84 429.14 182.84 429.14L186.3 425.35L192.86 429.63L205.14 433.06L212.84 426.49L211.28 413.59Z" fill="white" stroke="#263238" stroke-linejoin="round"/>
<path d="M211.43 415.36L216.31 422.62L214.24 428.69L212.46 432.84L194.55 434.76" stroke="#263238" stroke-linejoin="round"/>
<path d="M41.73 382.19H75.43C77.4828 382.19 79.4515 383.006 80.903 384.457C82.3545 385.909 83.17 387.878 83.17 389.93V392.2H41.73V382.2V382.19Z" fill="#263238" stroke="#263238" stroke-linejoin="round"/>
<path d="M85.2399 281.01L57.6099 365.61" stroke="#263238" stroke-width="3" stroke-linejoin="round"/>
<path d="M45.8799 382.19L57.6199 361.12L67.9699 382.19H45.8799Z" fill="#263238" stroke="#263238" stroke-linejoin="round"/>
<path d="M62.1001 361.12C62.1001 360.232 61.8368 359.364 61.3434 358.625C60.8501 357.887 60.1488 357.311 59.3284 356.972C58.5079 356.632 57.6051 356.543 56.7342 356.716C55.8632 356.889 55.0631 357.317 54.4352 357.945C53.8073 358.573 53.3796 359.373 53.2064 360.244C53.0331 361.115 53.1221 362.018 53.4619 362.838C53.8017 363.659 54.3772 364.36 55.1156 364.853C55.854 365.347 56.7221 365.61 57.6101 365.61C58.8009 365.61 59.943 365.137 60.785 364.295C61.6271 363.453 62.1001 362.311 62.1001 361.12Z" fill="#263238" stroke="#263238" stroke-linejoin="round"/>
<path d="M90.0698 282.05C90.0698 281.162 89.8065 280.293 89.3131 279.555C88.8198 278.817 88.1185 278.241 87.2981 277.901C86.4777 277.562 85.5749 277.473 84.7039 277.646C83.8329 277.819 83.0329 278.247 82.4049 278.875C81.777 279.503 81.3494 280.303 81.1761 281.174C81.0029 282.045 81.0918 282.947 81.4316 283.768C81.7715 284.588 82.347 285.289 83.0853 285.783C83.8237 286.276 84.6918 286.54 85.5798 286.54C86.7707 286.54 87.9127 286.067 88.7547 285.224C89.5968 284.382 90.0698 283.24 90.0698 282.05Z" fill="#263238" stroke="#263238" stroke-linejoin="round"/>
<path d="M85.5801 282.05L137.72 270.31" stroke="#263238" stroke-width="3" stroke-linejoin="round"/>
<path d="M175.43 285.55L148.04 303.95L137.99 274.19L151.68 264.99L175.43 285.55Z" fill="#FFDE86" stroke="#263238" stroke-linecap="round" stroke-linejoin="round"/>
<path d="M145.447 255.619L131.659 264.881L137.932 274.22L151.72 264.958L145.447 255.619Z" fill="white" stroke="#263238" stroke-linejoin="round"/>
<path d="M160.65 89.8496H44.7402V245.9H160.65V89.8496Z" stroke="#263238" stroke-miterlimit="10"/>
<path d="M155.8 96.3896H49.6001V239.37H155.8V96.3896Z" stroke="#263238" stroke-miterlimit="10"/>
<path d="M130.4 130.569H74.9902V205.169H130.4V130.569Z" stroke="#263238" stroke-miterlimit="10"/>
<path d="M183.3 114.51C180 99.3203 190.78 84.0003 207.46 80.3703C208.6 80.1203 209.73 79.9403 210.86 79.8003C210.251 75.3783 210.797 70.874 212.445 66.7256C214.093 62.5772 216.787 58.9259 220.264 56.1272C223.741 53.3284 227.884 51.4774 232.289 50.7542C236.693 50.031 241.21 50.4603 245.4 52.0003C247.049 48.4076 249.46 45.2174 252.467 42.6518C255.474 40.0862 259.005 38.2068 262.812 37.1445C266.619 36.0823 270.613 35.8626 274.514 36.5009C278.415 37.1391 282.13 38.62 285.4 40.8403C287.413 37.2149 290.18 34.0633 293.515 31.5981C296.849 29.133 300.674 27.4117 304.73 26.5503C310.115 25.3084 315.745 25.6523 320.939 27.5404C326.133 29.4285 330.669 32.7801 334 37.1903C338.717 32.5675 344.651 29.3804 351.11 28.0003C367.97 24.2903 384.18 32.9003 387.33 47.2203C388.36 51.9578 387.895 56.8979 386 61.3603C403.95 61.2603 419.49 71.4603 422.89 86.9203C425.38 98.2403 420.77 109.73 411.7 117.99C413.171 120.167 414.216 122.604 414.78 125.17C417.45 137.31 408.88 149.51 395.65 152.42C391.656 153.312 387.508 153.254 383.54 152.25C383.46 166.46 372.77 179.47 357.28 182.87C352.117 184.064 346.746 184.022 341.603 182.748C336.459 181.475 331.689 179.005 327.68 175.54C325.752 178.66 323.204 181.351 320.194 183.446C317.184 185.541 313.775 186.996 310.18 187.72C298.57 190.27 287.38 185.58 282.97 176.99C281.861 177.36 280.732 177.671 279.59 177.92C266.52 180.8 254.11 175.37 251.06 165.72C247.209 168.789 242.708 170.937 237.9 172C220.9 175.74 204.11 165.4 200.48 148.91C199.414 144.042 199.586 138.985 200.98 134.2C192.18 130.86 185.34 123.78 183.3 114.51Z" fill="#263238" stroke="#263238" stroke-linejoin="round"/>
<path d="M302.38 212.81C309.615 212.81 315.48 209.202 315.48 204.75C315.48 200.299 309.615 196.69 302.38 196.69C295.145 196.69 289.28 200.299 289.28 204.75C289.28 209.202 295.145 212.81 302.38 212.81Z" fill="#263238" stroke="#263238" stroke-linejoin="round"/>
<path d="M293.31 228.94C297.761 228.94 301.37 226.836 301.37 224.24C301.37 221.644 297.761 219.54 293.31 219.54C288.859 219.54 285.25 221.644 285.25 224.24C285.25 226.836 288.859 228.94 293.31 228.94Z" fill="#263238" stroke="#263238" stroke-linejoin="round"/>
<path d="M180.57 112.46C177.23 97.2701 188.05 81.9801 204.73 78.3201C205.85 78.0727 206.981 77.8824 208.12 77.7501C207.509 73.3273 208.054 68.8217 209.701 64.6718C211.348 60.522 214.041 56.8693 217.519 54.0692C220.997 51.2692 225.14 49.4173 229.546 48.6937C233.952 47.9701 238.47 48.3995 242.66 49.9401C244.309 46.3474 246.72 43.1572 249.727 40.5915C252.735 38.0259 256.265 36.1466 260.072 35.0843C263.88 34.022 267.873 33.8024 271.774 34.4406C275.675 35.0789 279.39 36.5597 282.66 38.7801C284.677 35.1559 287.447 32.0056 290.783 29.5408C294.119 27.076 297.943 25.3538 302 24.4901C307.391 23.2386 313.03 23.5777 318.232 25.4662C323.434 27.3547 327.977 30.7116 331.31 35.1301C336.026 30.5441 341.938 27.3798 348.37 26.0001C365.23 22.3001 381.45 30.9101 384.59 45.2201C385.609 49.9491 385.141 54.8774 383.25 59.3301C401.25 59.2301 416.75 69.4301 420.14 84.8901C422.63 96.2101 418.02 107.7 408.96 115.96C410.432 118.136 411.474 120.573 412.03 123.14C414.7 135.28 406.14 147.48 392.91 150.39C388.916 151.284 384.766 151.223 380.8 150.21C380.71 164.43 370.02 177.44 354.53 180.84C349.368 182.035 343.997 181.994 338.855 180.718C333.713 179.442 328.945 176.969 324.94 173.5C323.013 176.623 320.465 179.316 317.452 181.412C314.44 183.507 311.028 184.96 307.43 185.68C295.83 188.23 284.63 183.54 280.22 174.96C279.114 175.33 277.989 175.64 276.85 175.89C263.77 178.76 251.36 173.34 248.31 163.69C244.459 166.74 239.961 168.868 235.16 169.91C218.16 173.66 201.37 163.32 197.75 146.83C196.674 141.963 196.846 136.903 198.25 132.12C189.44 128.81 182.6 121.73 180.57 112.46Z" fill="white" stroke="#263238" stroke-miterlimit="10"/>
<path d="M299.65 210.75C306.885 210.75 312.75 207.141 312.75 202.69C312.75 198.238 306.885 194.63 299.65 194.63C292.415 194.63 286.55 198.238 286.55 202.69C286.55 207.141 292.415 210.75 299.65 210.75Z" fill="white" stroke="#263238" stroke-miterlimit="10"/>
<path d="M290.57 226.88C295.022 226.88 298.63 224.776 298.63 222.18C298.63 219.585 295.022 217.48 290.57 217.48C286.119 217.48 282.51 219.585 282.51 222.18C282.51 224.776 286.119 226.88 290.57 226.88Z" fill="white" stroke="#263238" stroke-miterlimit="10"/>
<path d="M326.54 81.59C326.544 77.8193 325.64 74.103 323.903 70.7559C322.166 67.4089 319.649 64.5295 316.564 62.3615C313.478 60.1936 309.916 58.801 306.179 58.3015C302.441 57.8021 298.638 58.2105 295.092 59.4923C291.546 60.7741 288.361 62.8914 285.806 65.6651C283.252 68.4388 281.403 71.7871 280.417 75.4266C279.431 79.0662 279.336 82.8897 280.141 86.5736C280.946 90.2575 282.626 93.6933 285.04 96.59C288.499 100.73 290.393 105.955 290.39 111.35V114.57H315.76V111.35C315.754 105.961 317.64 100.74 321.09 96.6C324.614 92.3923 326.543 87.0782 326.54 81.59Z" fill="#FFDE86" stroke="#263238" stroke-linecap="round" stroke-linejoin="round"/>
<path d="M315.76 114.601H290.39V120.881H315.76V114.601Z" fill="white" stroke="#263238" stroke-linecap="round" stroke-linejoin="round"/>
<path d="M290.39 120.891H315.76V124.661C315.76 125.326 315.496 125.965 315.025 126.435C314.554 126.906 313.916 127.171 313.25 127.171H292.9C292.234 127.171 291.596 126.906 291.125 126.435C290.655 125.965 290.39 125.326 290.39 124.661V120.891Z" fill="white" stroke="#263238" stroke-linecap="round" stroke-linejoin="round"/>
<path d="M293.59 127.16H312.59V130.93C312.59 131.596 312.325 132.234 311.855 132.705C311.384 133.176 310.745 133.44 310.08 133.44H296.08C295.414 133.44 294.776 133.176 294.305 132.705C293.834 132.234 293.57 131.596 293.57 130.93V127.16H293.59Z" fill="#263238" stroke="#263238" stroke-linecap="round" stroke-linejoin="round"/>
<path d="M329.87 81.7197H340.62" stroke="#263238" stroke-linecap="round" stroke-linejoin="round"/>
<path d="M264.52 81.7197H275.4" stroke="#263238" stroke-linecap="round" stroke-linejoin="round"/>
<path d="M302.57 54.4402V43.6602" stroke="#263238" stroke-linecap="round" stroke-linejoin="round"/>
<path d="M322.06 62.2305L329.48 54.8105" stroke="#263238" stroke-linecap="round" stroke-linejoin="round"/>
<path d="M275.66 108.631L283.19 101.101" stroke="#263238" stroke-linecap="round" stroke-linejoin="round"/>
<path d="M282.87 62.0205L275.66 54.8105" stroke="#263238" stroke-linecap="round" stroke-linejoin="round"/>
<path d="M329.48 108.63L322.3 101.45" stroke="#263238" stroke-linecap="round" stroke-linejoin="round"/>
<path d="M398 88.91C396.684 88.9138 395.371 88.7865 394.08 88.53C391.96 95.26 384.89 100.21 376.48 100.21C372.575 100.232 368.749 99.1054 365.48 96.97C364.758 99.5001 363.241 101.731 361.154 103.334C359.067 104.936 356.521 105.825 353.89 105.87C351.623 105.852 349.406 105.199 347.492 103.985C345.577 102.77 344.042 101.043 343.06 99C340.664 100.743 337.873 101.863 334.937 102.259C332.002 102.655 329.013 102.316 326.241 101.27C323.47 100.225 321.001 98.507 319.058 96.2709C317.115 94.0347 315.758 91.3506 315.11 88.46C309.76 88.08 305.59 85.04 305.59 81.33C305.59 77.33 310.36 74.16 316.24 74.16C316.909 74.1582 317.577 74.2016 318.24 74.29C320.933 70.7197 324.865 68.2863 329.262 67.4684C333.659 66.6505 338.203 67.5072 342 69.87C344.31 63 351.75 58 360.59 58C368.87 58 375.92 62.39 378.68 68.56C383.333 68.9963 387.662 71.1325 390.84 74.56C393.121 73.6725 395.552 73.2312 398 73.26C405.09 73.26 410.83 76.76 410.83 81.08C410.83 85.4 405.07 88.91 398 88.91Z" fill="#C9C9C9" stroke="#263238" stroke-linejoin="round"/>
<path d="M301 118.91C299.684 118.914 298.371 118.786 297.08 118.53C294.96 125.26 287.9 130.22 279.48 130.22C275.576 130.237 271.752 129.111 268.48 126.98C267.754 129.507 266.237 131.735 264.15 133.336C262.064 134.936 259.519 135.824 256.89 135.87C254.63 135.845 252.421 135.188 250.515 133.974C248.608 132.76 247.079 131.037 246.1 129C243.704 130.743 240.913 131.863 237.977 132.259C235.042 132.655 232.053 132.316 229.281 131.27C226.51 130.225 224.041 128.507 222.098 126.271C220.155 124.035 218.798 121.351 218.15 118.46C212.8 118.08 208.63 115.04 208.63 111.33C208.63 107.33 213.4 104.16 219.28 104.16C219.949 104.163 220.616 104.206 221.28 104.29C223.972 100.73 227.896 98.3039 232.284 97.4863C236.671 96.6687 241.206 97.5188 245 99.87C247.35 93 254.79 88 263.63 88C271.92 88 278.96 92.4 281.72 98.56C286.373 98.9963 290.702 101.132 293.88 104.56C296.154 103.668 298.577 103.22 301.02 103.24C308.11 103.24 313.85 106.74 313.85 111.06C313.85 115.38 308.11 118.91 301 118.91Z" fill="#C9C9C9" stroke="#263238" stroke-linejoin="round"/>
<path d="M302.84 71.4399C301.887 71.4404 300.935 71.3466 300 71.1599C298.47 76.0299 293.37 79.6099 287.29 79.6099C284.452 79.6308 281.67 78.8171 279.29 77.2699C278.77 79.0821 277.686 80.6815 276.195 81.8359C274.705 82.9904 272.885 83.6398 271 83.6899C269.362 83.67 267.763 83.1909 266.384 82.307C265.005 81.423 263.902 80.1698 263.2 78.6899C261.47 79.9482 259.454 80.757 257.333 81.0437C255.213 81.3305 253.055 81.0862 251.052 80.3327C249.05 79.5793 247.266 78.3403 245.86 76.7271C244.455 75.1138 243.472 73.1768 243 71.0899C239.13 70.8199 236.12 68.6199 236.12 65.9399C236.12 63.0699 239.56 60.7499 243.82 60.7499C244.312 60.7526 244.803 60.786 245.29 60.8499C247.239 58.2812 250.076 56.5324 253.246 55.946C256.417 55.3597 259.692 55.978 262.43 57.6799C264.1 52.7399 269.48 49.1299 275.87 49.1299C281.87 49.1299 286.95 52.2999 288.94 56.7599C292.3 57.0758 295.427 58.6128 297.73 61.0799C299.37 60.4188 301.122 60.0793 302.89 60.0799C308.01 60.0799 312.16 62.6199 312.16 65.7399C312.16 68.8599 308 71.4399 302.84 71.4399Z" fill="#C9C9C9" stroke="#263238" stroke-linejoin="round"/>
<path d="M343.71 152.309C342.76 152.309 341.812 152.218 340.88 152.039C339.35 156.899 334.24 160.479 328.16 160.479C325.321 160.5 322.539 159.687 320.16 158.139C319.638 159.966 318.543 161.577 317.036 162.733C315.528 163.889 313.689 164.529 311.79 164.559C310.152 164.54 308.553 164.061 307.174 163.177C305.795 162.293 304.691 161.039 303.99 159.559C302.258 160.818 300.242 161.626 298.121 161.912C296 162.199 293.841 161.953 291.839 161.199C289.836 160.444 288.052 159.204 286.647 157.59C285.242 155.975 284.26 154.037 283.79 151.949C279.92 151.669 276.91 149.469 276.91 146.789C276.91 143.929 280.36 141.609 284.61 141.609C285.101 141.609 285.592 141.639 286.08 141.699C288.028 139.131 290.865 137.382 294.036 136.796C297.206 136.209 300.481 136.828 303.22 138.529C304.89 133.599 310.27 129.979 316.66 129.979C322.66 129.979 327.74 133.159 329.73 137.609C333.092 137.924 336.221 139.466 338.52 141.939C340.158 141.274 341.911 140.934 343.68 140.939C348.8 140.939 352.95 143.469 352.95 146.589C352.95 149.709 348.83 152.309 343.71 152.309Z" fill="#C9C9C9" stroke="#263238" stroke-linejoin="round"/>
</svg>
