<svg width="15" height="15" viewBox="0 0 15 15" fill="none" xmlns="http://www.w3.org/2000/svg">
<path d="M7.7491 0.0107437C6.32154 0.0107439 4.92605 0.434122 3.73914 1.22733C2.55224 2.02053 1.62723 3.14792 1.08114 4.4669C0.535049 5.78588 0.392399 7.23719 0.671236 8.63725C0.950074 10.0373 1.63787 11.3232 2.64763 12.3323C3.65738 13.3415 4.94374 14.0284 6.34398 14.3064C7.74421 14.5843 9.19543 14.4408 10.5141 13.8938C11.8327 13.3469 12.9595 12.4212 13.7519 11.2338C14.5444 10.0463 14.9669 8.65058 14.966 7.22302C14.966 6.2755 14.7793 5.33728 14.4165 4.46194C14.0538 3.58661 13.5221 2.79133 12.8519 2.12155C12.1817 1.45176 11.3861 0.920607 10.5105 0.558426C9.63497 0.196245 8.69662 0.0101401 7.7491 0.0107437ZM9.09509 7.69618L6.89465 11.9409L6.64659 10.186L6.39852 8.4312L4.63909 8.21069L2.88426 7.99019L7.10597 5.72085L11.3139 3.4561L9.09509 7.69618Z" fill="#222222"/>
</svg>
