<svg width="56" height="56" viewBox="0 0 56 56" fill="none" xmlns="http://www.w3.org/2000/svg">
<rect width="56" height="56" rx="12" fill="white"/>
<rect x="3" y="3" width="50" height="50" rx="12" fill="#F3F3F3"/>
<mask id="mask0_1642_23622" style="mask-type:alpha" maskUnits="userSpaceOnUse" x="3" y="3" width="50" height="50">
<rect x="3" y="3" width="50" height="50" rx="12" fill="white"/>
</mask>
<g mask="url(#mask0_1642_23622)">
</g>
<path d="M42.3176 31.3744C42.3155 31.3243 42.3055 31.2747 42.288 31.2276C42.2835 31.2169 42.2812 31.2059 42.2765 31.1959C42.2717 31.1859 42.2735 31.184 42.2707 31.1784L41.316 29.2689C41.2351 29.1069 41.0696 29.0049 40.8887 29.0049H39.6475L37.553 22.3217H39.934C40.1976 22.3217 40.4114 22.1079 40.4114 21.8443V19.9348C40.4114 19.9316 40.4114 19.929 40.4114 19.9258C40.41 19.8705 40.399 19.816 40.379 19.7645C40.3731 19.7512 40.3668 19.7379 40.3598 19.7253C40.3519 19.7064 40.3431 19.6878 40.333 19.6698L38.4236 16.8056C38.3348 16.6723 38.1849 16.5926 38.0245 16.5933H17.975C17.8154 16.5933 17.6664 16.673 17.5778 16.8056L15.6684 19.6698C15.6583 19.6878 15.6495 19.7064 15.6416 19.7253C15.6346 19.7379 15.6283 19.7512 15.6225 19.7645C15.6017 19.8157 15.5901 19.8703 15.5882 19.9258V19.9348V21.8443C15.5882 22.1079 15.8019 22.3217 16.0656 22.3217H18.4466L16.352 29.0049H15.1108C14.9299 29.0049 14.7644 29.1069 14.6836 29.2689L13.7288 31.1784C13.726 31.184 13.7256 31.1903 13.7225 31.1959C13.7197 31.2017 13.716 31.2169 13.7116 31.2276C13.6941 31.2747 13.6841 31.3243 13.682 31.3744C13.682 31.3803 13.6787 31.3854 13.6787 31.3917V33.3012C13.6787 33.5648 13.8925 33.7785 14.1561 33.7785H15.0521L13.8381 38.3093C13.7698 38.5639 13.9207 38.8256 14.1752 38.8939L16.0227 39.3904C16.0632 39.4011 16.1047 39.4065 16.1467 39.4067C16.3627 39.4067 16.5518 39.2618 16.608 39.0529L18.0228 33.7785H37.9767L39.3902 39.0529C39.4461 39.2618 39.6354 39.4067 39.8515 39.4067C39.8932 39.4065 39.9349 39.4011 39.9755 39.3904L41.823 38.8939C42.0775 38.8256 42.2283 38.5639 42.16 38.3093L40.9475 33.7785H41.8435C42.1071 33.7785 42.3208 33.5648 42.3208 33.3012V31.3917C42.3208 31.3854 42.3176 31.3807 42.3176 31.3744V31.3744ZM38.649 29.0049H37.6737L35.5766 22.3217H36.5523L38.649 29.0049ZM34.5755 22.3217L36.6726 29.0049H19.327L21.4241 22.3217H34.5755ZM18.2305 17.548H37.769L39.0422 19.4575H16.9574L18.2305 17.548ZM16.5429 20.4122H39.4566V21.367H16.5429V20.4122ZM19.4472 22.3217H20.4229L18.3258 29.0049H17.3506L19.4472 22.3217ZM15.4059 29.9596H40.5936L41.071 30.9143H14.9285L15.4059 29.9596ZM15.8092 38.3441L14.8836 38.0958L16.0401 33.7785H17.0331L15.8092 38.3441ZM41.116 38.0958L40.1904 38.3441L38.9664 33.7785H39.9594L41.116 38.0958ZM41.3661 32.8238H14.6334V31.8691H41.3661V32.8238Z" fill="black"/>
</svg>
