<svg width="22" height="18" viewBox="0 0 22 18" fill="none" xmlns="http://www.w3.org/2000/svg">
<path d="M21.7389 11.5307C21.7373 11.4931 21.7298 11.4559 21.7167 11.4206C21.7134 11.4125 21.7116 11.4043 21.7081 11.3968C21.7045 11.3893 21.7059 11.3879 21.7038 11.3837L20.9877 9.95159C20.9271 9.83009 20.8029 9.75352 20.6673 9.75352H19.7364L18.1655 4.74115H19.9512C20.1489 4.74115 20.3093 4.58084 20.3093 4.38312V2.95101C20.3093 2.94857 20.3093 2.94664 20.3093 2.9442C20.3082 2.90276 20.3 2.86186 20.285 2.82322C20.2806 2.81326 20.2759 2.80329 20.2706 2.79385C20.2647 2.77969 20.258 2.76571 20.2505 2.75225L18.8184 0.604087C18.7518 0.504091 18.6394 0.444303 18.5191 0.444828H3.482C3.36225 0.444828 3.25055 0.504615 3.18412 0.604087L1.75201 2.75225C1.74449 2.76571 1.73785 2.77969 1.7319 2.79385C1.72666 2.80329 1.72194 2.81326 1.71757 2.82322C1.70201 2.86168 1.69327 2.90259 1.69187 2.9442V2.95101V4.38312C1.69187 4.58084 1.85218 4.74115 2.0499 4.74115H3.83566L2.26475 9.75352H1.33385C1.19819 9.75352 1.07407 9.83009 1.0134 9.95159L0.297351 11.3837C0.295254 11.3879 0.294904 11.3926 0.292631 11.3968C0.290534 11.4012 0.287736 11.4125 0.284415 11.4206C0.271304 11.4559 0.263786 11.4931 0.262213 11.5307C0.262213 11.5351 0.259766 11.5389 0.259766 11.5437V12.9758C0.259766 13.1735 0.420073 13.3338 0.617792 13.3338H1.28979L0.379341 16.7319C0.328119 16.9228 0.441226 17.1191 0.632127 17.1703L2.01773 17.5427C2.04815 17.5507 2.07927 17.5548 2.11073 17.5549C2.27279 17.5549 2.41457 17.4462 2.4567 17.2896L3.51784 13.3338H18.4833L19.5434 17.2896C19.5853 17.4462 19.7273 17.5549 19.8893 17.5549C19.9206 17.5548 19.9519 17.5507 19.9823 17.5427L21.3679 17.1703C21.5588 17.1191 21.672 16.9228 21.6207 16.7319L20.7113 13.3338H21.3833C21.5811 13.3338 21.7414 13.1735 21.7414 12.9758V11.5437C21.7414 11.5389 21.7389 11.5354 21.7389 11.5307ZM18.9875 9.75352H18.256L16.6832 4.74115H17.415L18.9875 9.75352ZM15.9323 4.74115L17.5052 9.75352H4.49595L6.06878 4.74115H15.9323ZM3.6736 1.16088H18.3275L19.2824 2.59299H2.71875L3.6736 1.16088ZM2.40792 3.30904H19.5932V4.02509H2.40792V3.30904ZM4.58615 4.74115H5.31794L3.74511 9.75352H3.01367L4.58615 4.74115ZM1.55516 10.4696H20.446L20.804 11.1856H1.19714L1.55516 10.4696ZM1.8576 16.7579L1.1634 16.5718L2.03084 13.3338H2.77557L1.8576 16.7579ZM20.8377 16.5718L20.1435 16.7579L19.2256 13.3338H19.9703L20.8377 16.5718ZM21.0253 12.6177H0.975819V11.9017H21.0253V12.6177Z" fill="black"/>
</svg>
