<svg width="14" height="14" viewBox="0 0 14 14" fill="none" xmlns="http://www.w3.org/2000/svg">
<path d="M1.94308 9.87393C2.20901 10.1398 2.64034 10.1398 2.90641 9.87393L4.62466 7.88331C4.89059 7.61741 4.80132 7.40165 4.42516 7.40165H3.31447C3.22051 6.15234 3.66573 4.91311 4.58192 3.99691C6.28451 2.29447 9.0545 2.29447 10.7569 3.99691C11.5816 4.82163 12.0358 5.918 12.0358 7.08435C12.0358 8.25067 11.5815 9.34706 10.7569 10.1718C9.57565 11.3531 7.858 11.7557 6.27264 11.2225C5.81336 11.0673 5.31503 11.315 5.16032 11.7747C5.00562 12.2344 5.25283 12.7323 5.71251 12.887C6.36118 13.1054 7.0255 13.2116 7.6828 13.2116C9.27607 13.2116 10.8261 12.5861 11.9985 11.4136C13.155 10.2572 13.7919 8.71975 13.7919 7.0842C13.7919 5.44863 13.155 3.9113 11.9985 2.75478C9.61123 0.367546 5.72701 0.367546 3.33991 2.75478C2.08621 4.00849 1.45936 5.69321 1.55229 7.4015H0.560596C0.184465 7.4015 0.0951917 7.61707 0.361123 7.88317L1.94308 9.87393Z" fill="#222222"/>
</svg>
