<svg width="56" height="56" viewBox="0 0 56 56" fill="none" xmlns="http://www.w3.org/2000/svg">
<rect width="56" height="56" rx="12" fill="white"/>
<rect x="3" y="3" width="50" height="50" rx="12" fill="#F3F3F3"/>
<mask id="mask0_1642_23603" style="mask-type:alpha" maskUnits="userSpaceOnUse" x="3" y="3" width="50" height="50">
<rect x="3" y="3" width="50" height="50" rx="12" fill="white"/>
</mask>
<g mask="url(#mask0_1642_23603)">
</g>
<path d="M24.2641 14.0455H22.405C21.1222 14.047 20.0826 15.0866 20.0811 16.3694V20.9016C20.0826 21.9663 20.3304 23.0162 20.8052 23.9691C21.2424 24.8451 21.4566 25.8155 21.4289 26.7941L21.0571 39.5975C21.0131 40.8546 21.9964 41.9093 23.2535 41.9532C24.5105 41.9972 25.5652 41.0139 25.6092 39.7568C25.6111 39.7037 25.6111 39.6506 25.6092 39.5975L25.2374 26.7954C25.2098 25.8172 25.424 24.8474 25.8611 23.9719C26.3372 23.0184 26.5861 21.9677 26.588 20.902V16.3694C26.5865 15.0866 25.547 14.0471 24.2641 14.0455ZM25.6585 20.902C25.6573 21.8225 25.443 22.7303 25.0324 23.5541C24.5267 24.5669 24.2788 25.689 24.3106 26.8206L24.6824 39.6208C24.6931 39.9845 24.5551 40.337 24.3004 40.5968C23.7641 41.1216 22.9068 41.1216 22.3706 40.5968C22.1155 40.3378 21.9769 39.986 21.9867 39.6226L22.3585 26.8211C22.3906 25.6893 22.1428 24.5671 21.6372 23.5541C21.2263 22.7301 21.0119 21.8222 21.0106 20.9016V16.3694C21.0131 15.7807 21.3851 15.2569 21.9402 15.0606V20.5525H22.8698V14.9751H23.7993V20.5525H24.7289V15.0606C25.284 15.2569 25.656 15.7807 25.6585 16.3694V20.902Z" fill="black"/>
<path d="M33.56 27.9797V14.5102C33.56 14.2535 33.3519 14.0454 33.0952 14.0454C31.5 14.0404 30.0642 15.0124 29.4764 16.4953C28.1936 19.7027 28.1275 23.2684 29.2905 26.5212L29.8408 28.0615L29.4429 39.5937C29.3991 40.8418 30.3753 41.8891 31.6233 41.9329C32.8714 41.9768 33.9186 41.0006 33.9625 39.7526C33.9644 39.6996 33.9644 39.6467 33.9625 39.5938L33.56 27.9797ZM30.3395 16.8406C30.725 15.8679 31.5966 15.1718 32.6304 15.0108V27.5242H30.6319L30.162 26.2089C29.0763 23.169 29.1394 19.8372 30.3395 16.8406ZM32.6583 40.5967C32.1275 41.1205 31.2742 41.1205 30.7434 40.5967C30.492 40.3373 30.3576 39.9864 30.3716 39.6253L30.7555 28.4538H32.6462L33.0315 39.6253C33.0451 39.9865 32.9103 40.3376 32.6583 40.5967Z" fill="black"/>
</svg>
