<svg width="11" height="22" viewBox="0 0 11 22" fill="none" xmlns="http://www.w3.org/2000/svg">
<path d="M3.19785 0.53418H1.80349C0.841386 0.535313 0.0616798 1.31502 0.0605469 2.27712V5.67621C0.0616798 6.47474 0.247565 7.26216 0.603648 7.9769C0.931539 8.6339 1.09224 9.36167 1.07145 10.0956L0.792584 19.6982C0.759598 20.641 1.49708 21.432 2.43988 21.465C3.38264 21.498 4.17368 20.7605 4.20666 19.8177C4.20806 19.7778 4.20806 19.738 4.20666 19.6982L3.92779 10.0966C3.90709 9.36297 4.06779 8.6356 4.3956 7.97895C4.75268 7.26386 4.93931 6.47579 4.94079 5.67652V2.27712C4.93966 1.31502 4.15999 0.535356 3.19785 0.53418ZM4.24361 5.67656C4.24274 6.36694 4.08204 7.04774 3.77406 7.66561C3.39475 8.42523 3.20883 9.26676 3.2327 10.1155L3.51158 19.7156C3.51959 19.9884 3.41611 20.2528 3.22504 20.4477C2.82285 20.8413 2.17988 20.8413 1.77769 20.4477C1.58636 20.2534 1.4824 19.9896 1.48976 19.717L1.76863 10.1158C1.79268 9.26703 1.60684 8.4254 1.22762 7.66561C0.919513 7.04765 0.758683 6.36672 0.757725 5.67621V2.27712C0.759555 1.83555 1.03856 1.44269 1.4549 1.2955V5.41442H2.15208V1.23136H2.84926V5.41442H3.54643V1.2955C3.96278 1.44269 4.24178 1.83555 4.24361 2.27712V5.67656Z" fill="black"/>
<path d="M10.1698 10.9849V0.882783C10.1698 0.690275 10.0137 0.534194 9.82116 0.534194C8.62472 0.530403 7.54793 1.25939 7.10705 2.37161C6.14499 4.77717 6.0954 7.45141 6.96762 9.89101L7.38035 11.0462L7.08195 19.6954C7.04906 20.6315 7.78122 21.4169 8.71723 21.4498C9.65328 21.4827 10.4387 20.7506 10.4716 19.8145C10.473 19.7749 10.473 19.7351 10.4716 19.6955L10.1698 10.9849ZM7.75438 2.63061C8.04354 1.90105 8.69718 1.379 9.47258 1.25821V10.6433H7.97364L7.62122 9.65676C6.80696 7.3769 6.85428 4.878 7.75438 2.63061ZM9.49349 20.4477C9.09536 20.8405 8.45544 20.8405 8.05731 20.4477C7.86872 20.2531 7.76798 19.9899 7.77843 19.7191L8.06637 11.3404H9.48443L9.77341 19.7191C9.7836 19.99 9.68247 20.2533 9.49349 20.4477Z" fill="black"/>
</svg>
