<svg width="18" height="22" viewBox="0 0 18 22" fill="none" xmlns="http://www.w3.org/2000/svg">
<path d="M16.8579 21.2502H1.14124C1.09441 21.2503 1.04806 21.2408 1.00506 21.2222C0.962069 21.2037 0.923349 21.1765 0.891309 21.1423C0.859269 21.1082 0.834593 21.0678 0.818812 21.0237C0.803031 20.9796 0.796482 20.9327 0.799573 20.886L1.82457 5.51101C1.8303 5.42436 1.86882 5.34314 1.93228 5.28387C1.99574 5.22459 2.0794 5.19171 2.16624 5.1919H4.89957C4.99019 5.1919 5.07709 5.22789 5.14117 5.29197C5.20524 5.35604 5.24124 5.44295 5.24124 5.53356V7.92523H7.29124V5.53356C7.29124 5.44295 7.32724 5.35604 7.39131 5.29197C7.45539 5.22789 7.54229 5.1919 7.63291 5.1919H10.3662C10.4569 5.1919 10.5438 5.22789 10.6078 5.29197C10.6719 5.35604 10.7079 5.44295 10.7079 5.53356V8.2669H12.7579V5.53356C12.7579 5.44295 12.7939 5.35604 12.858 5.29197C12.9221 5.22789 13.009 5.1919 13.0996 5.1919H15.8329C15.9197 5.19171 16.0034 5.22459 16.0669 5.28387C16.1303 5.34314 16.1688 5.42436 16.1746 5.51101L17.1996 20.886C17.2027 20.9327 17.1961 20.9796 17.1803 21.0237C17.1646 21.0678 17.1399 21.1082 17.1078 21.1423C17.0758 21.1765 17.0371 21.2037 16.9941 21.2222C16.9511 21.2408 16.9047 21.2503 16.8579 21.2502ZM1.50648 20.5669H16.4927L15.5131 5.87523H13.4412V8.60856C13.4412 8.69918 13.4052 8.78608 13.3412 8.85016C13.2771 8.91423 13.1902 8.95023 13.0996 8.95023H10.3662C10.2756 8.95023 10.1887 8.91423 10.1246 8.85016C10.0606 8.78608 10.0246 8.69918 10.0246 8.60856V5.87523H7.97457V8.2669C7.97457 8.35751 7.93858 8.44442 7.8745 8.50849C7.81043 8.57257 7.72352 8.60856 7.63291 8.60856H4.89957C4.80896 8.60856 4.72205 8.57257 4.65798 8.50849C4.5939 8.44442 4.55791 8.35751 4.55791 8.2669V5.87523H2.48604L1.50648 20.5669Z" fill="black"/>
<path d="M12.0737 21.2502H5.9237C5.83308 21.2502 5.74618 21.2142 5.6821 21.1501C5.61803 21.086 5.58203 20.9991 5.58203 20.9085V16.1252C5.58203 15.219 5.942 14.35 6.58275 13.7092C7.2235 13.0685 8.09254 12.7085 8.9987 12.7085C9.90485 12.7085 10.7739 13.0685 11.4146 13.7092C12.0554 14.35 12.4154 15.219 12.4154 16.1252V20.9085C12.4154 20.9991 12.3794 21.086 12.3153 21.1501C12.2512 21.2142 12.1643 21.2502 12.0737 21.2502ZM6.26536 20.5668H11.732V16.1252C11.732 15.4002 11.4441 14.705 10.9315 14.1924C10.4189 13.6798 9.72362 13.3918 8.9987 13.3918C8.27377 13.3918 7.57854 13.6798 7.06594 14.1924C6.55334 14.705 6.26536 15.4002 6.26536 16.1252V20.5668Z" fill="black"/>
<path d="M8.99987 5.87493C8.90925 5.87493 8.82235 5.83894 8.75827 5.77486C8.6942 5.71079 8.6582 5.62388 8.6582 5.53327V3.48327C8.6582 3.39265 8.6942 3.30575 8.75827 3.24167C8.82235 3.1776 8.90925 3.1416 8.99987 3.1416C9.09049 3.1416 9.17739 3.1776 9.24146 3.24167C9.30554 3.30575 9.34154 3.39265 9.34154 3.48327V5.53327C9.34154 5.62388 9.30554 5.71079 9.24146 5.77486C9.17739 5.83894 9.09049 5.87493 8.99987 5.87493Z" fill="black"/>
<path d="M13.7832 3.825H8.99987C8.90925 3.825 8.82235 3.789 8.75827 3.72493C8.6942 3.66085 8.6582 3.57395 8.6582 3.48333V1.09167C8.6582 1.00105 8.6942 0.914147 8.75827 0.850072C8.82235 0.785997 8.90925 0.75 8.99987 0.75H13.7832C13.8738 0.75 13.9607 0.785997 14.0248 0.850072C14.0889 0.914147 14.1249 1.00105 14.1249 1.09167V3.48333C14.1249 3.57395 14.0889 3.66085 14.0248 3.72493C13.9607 3.789 13.8738 3.825 13.7832 3.825ZM9.34154 3.14167H13.4415V1.43333H9.34154V3.14167Z" fill="black"/>
</svg>
