<svg width="15" height="16" viewBox="0 0 15 16" fill="none" xmlns="http://www.w3.org/2000/svg">
<path d="M7.7491 0.948244C6.32154 0.948244 4.92605 1.37162 3.73914 2.16483C2.55224 2.95803 1.62723 4.08542 1.08114 5.4044C0.535049 6.72338 0.392399 8.17469 0.671236 9.57475C0.950074 10.9748 1.63787 12.2607 2.64763 13.2698C3.65738 14.279 4.94374 14.9659 6.34398 15.2439C7.74422 15.5218 9.19543 15.3783 10.5141 14.8313C11.8327 14.2844 12.9595 13.3587 13.7519 12.1713C14.5444 10.9838 14.9669 9.58808 14.966 8.16052C14.966 7.213 14.7793 6.27478 14.4165 5.39944C14.0538 4.52411 13.5221 3.72883 12.8519 3.05905C12.1817 2.38926 11.3861 1.85811 10.5105 1.49593C9.63497 1.13375 8.69662 0.94764 7.7491 0.948244ZM9.09509 8.63368L6.89465 12.8784L6.64659 11.1235L6.39852 9.3687L4.63909 9.14819L2.88426 8.92769L7.10597 6.65835L11.3139 4.3936L9.09509 8.63368Z" fill="#201A32"/>
</svg>
