<svg width="25" height="62" viewBox="0 0 25 62" fill="none" xmlns="http://www.w3.org/2000/svg">
<path d="M12.8359 1.07715L12.8359 17.0771" stroke="#FF8811" stroke-opacity="0.2" stroke-width="1.14039" stroke-linecap="round" stroke-dasharray="2.28 2.28"/>
<path d="M8.34573 38.3084C8.04182 38.8268 8.05837 39.4664 8.57913 39.8511C9.02474 40.1795 9.81797 40.1368 10.1225 39.6181C10.7522 38.5441 11.8941 37.7353 11.8941 37.7353C11.8941 37.7353 11.4736 36.809 11.2746 35.0732C11.2743 35.0736 9.06215 37.0858 8.34573 38.3084Z" fill="#FF8811"/>
<path d="M17.3277 28.9658C16.0355 27.8157 14.6494 26.7838 13.1324 25.9538C12.9692 25.8303 12.7825 25.7337 12.5855 25.6691C12.4538 25.6158 12.3243 25.59 12.1998 25.5863C11.9916 25.5625 11.783 25.5731 11.592 25.6244C11.0878 25.7595 10.7475 26.068 10.5538 26.4607C9.61921 27.5522 8.83857 28.7384 8.13804 29.9918C7.44248 31.2353 9.34874 32.3479 10.0436 31.1055C10.2608 30.7165 10.4846 30.3331 10.7183 29.957C10.92 31.3157 11.1212 32.6744 11.3222 34.0327C11.3629 34.3082 11.494 34.5452 11.6771 34.7379C11.9698 36.6719 12.5071 38.5799 13.3543 40.3351C13.9723 41.6164 15.875 40.4964 15.2598 39.2211C14.6269 37.9098 14.2038 36.4581 13.9432 34.9938C14.5159 34.5949 14.7235 33.8765 14.6163 33.1501C14.417 31.8086 14.2187 30.4665 14.0194 29.1247C14.6225 29.5601 15.2046 30.0269 15.7657 30.5264C16.8274 31.4683 18.3937 29.9133 17.3277 28.9658Z" fill="#FF8811"/>
<path d="M12.0341 25.0985C13.0961 25.0985 13.9569 24.2377 13.9569 23.1757C13.9569 22.1138 13.0961 21.2529 12.0341 21.2529C10.9722 21.2529 10.1113 22.1138 10.1113 23.1757C10.1113 24.2377 10.9722 25.0985 12.0341 25.0985Z" fill="#FF8811"/>
<path d="M12.8359 45.0771L12.8359 61.0771" stroke="#FF8811" stroke-opacity="0.2" stroke-width="1.14039" stroke-linecap="round" stroke-dasharray="2.28 2.28"/>
</svg>
