<svg width="41" height="41" viewBox="0 0 41 41" fill="none" xmlns="http://www.w3.org/2000/svg">
<path fill-rule="evenodd" clip-rule="evenodd" d="M20.7212 40.5593C31.7669 40.5593 40.7212 31.605 40.7212 20.5593C40.7212 9.51363 31.7669 0.559326 20.7212 0.559326C9.6755 0.559326 0.721191 9.51363 0.721191 20.5593C0.721191 31.605 9.6755 40.5593 20.7212 40.5593Z" fill="#6938D3"/>
<path fill-rule="evenodd" clip-rule="evenodd" d="M29.4712 18.6843C29.4712 25.0038 21.3462 30.4204 21.3462 30.4204C21.3462 30.4204 13.2212 25.0038 13.2212 18.6843C13.2212 14.197 16.8589 10.5593 21.3462 10.5593C25.8335 10.5593 29.4712 14.197 29.4712 18.6843V18.6843Z" stroke="white" stroke-width="2" stroke-linecap="round" stroke-linejoin="round"/>
<path fill-rule="evenodd" clip-rule="evenodd" d="M21.3465 21.393C22.8423 21.393 24.0549 20.1804 24.0549 18.6847C24.0549 17.1889 22.8423 15.9763 21.3465 15.9763C19.8507 15.9763 18.6382 17.1889 18.6382 18.6847C18.6382 20.1804 19.8507 21.393 21.3465 21.393Z" stroke="white" stroke-width="2" stroke-linecap="round" stroke-linejoin="round"/>
</svg>
